# File created by Blade
# Date/Time:  Tue Sep 30 19:36:36 2014
#---------------------------------------------------------
:version 1.10
:name HOM
:units
  mass 1.0
  length 1.000000
  angle deg
:documentation
     Acclaim Skeleton File
:root
   axis xyz
   order TX TY TZ RX RY RZ
   position 0.000000 0.000000 0.000000
   orientation 0 0 0
:bonedata
   begin
      id 1
      name Spine_dum
      direction 0.000000 1.000000 0.000000
      length 3.241213
      axis 0.0 0.0 0.0 xyz
   end
   begin
      id 2
      name LeftUpLeg_dum
      direction 1.000000 0.000000 0.000000
      length 3.434019
      axis 0.0 0.0 0.0 xyz
   end
   begin
      id 3
      name RightUpLeg_dum
      direction -1.000000 0.000000 0.000000
      length 3.434019
      axis 0.0 0.0 0.0 xyz
   end
   begin
      id 4
      name Spine
      direction 0.000000 1.000000 0.000000
      length 0.000000
      axis 0.0 0.0 0.0 xyz
      dof rx ry rz
   end
   begin
      id 5
      name Spine_dum1
      direction 0.000000 1.000000 0.000000
      length 18.382958
      axis 0.0 0.0 0.0 xyz
   end
   begin
      id 6
      name Spine_dum2
      direction 0.000000 1.000000 0.000000
      length 12.828261
      axis 0.0 0.0 0.0 xyz
   end
   begin
      id 7
      name Spine_dum3
      direction 0.000000 1.000000 0.000000
      length 12.828261
      axis 0.0 0.0 0.0 xyz
   end
   begin
      id 8
      name Head
      direction 0.000000 1.000000 0.000000
      length 4.527550
      axis 0.0 0.0 0.0 xyz
      dof rx ry rz
   end
   begin
      id 9
      name LeftShoulder
      direction 1.000000 0.000000 0.000000
      length 7.748055
      axis 0.0 0.0 -90.0 xyz
      dof rx ry rz
   end
   begin
      id 10
      name LeftArm
      direction 1.000000 0.000000 0.000000
      length 10.635614
      axis 0.0 0.0 -90.0 xyz
      dof rx ry rz
   end
   begin
      id 11
      name LeftForeArm
      direction 1.000000 0.000000 0.000000
      length 8.346755
      axis 0.0 0.0 -90.0 xyz
      dof ry rz rx
   end
   begin
      id 12
      name LeftHand
      direction 0.000000 0.000000 0.000000
      length 0.000000
      axis 0.0 0.0 -90.0 xyz
      dof rx ry rz
   end
   begin
      id 13
      name LeftHand_dum1
      direction 0.000000 0.000000 0.000000
      length 0.000000
      axis 0.0 0.0 -90.0 xyz
   end
   begin
      id 14
      name LeftHand_dum2
      direction 1.000000 0.000000 0.000000
      length 3.937000
      axis 0.0 0.0 -90.0 xyz
   end
   begin
      id 15
      name LeftHandThumb1
      direction 0.000000 0.000000 1.000000
      length 3.937000
      axis 0.0 0.0 -90.0 xyz
      dof rx rz ry
   end
   begin
      id 16
      name RightShoulder
      direction -1.000000 0.000000 0.000000
      length 7.748055
      axis 0.0 0.0 90.0 xyz
      dof rx ry rz
   end
   begin
      id 17
      name RightArm
      direction -1.000000 0.000000 0.000000
      length 10.635614
      axis 0.0 0.0 90.0 xyz
      dof rx ry rz
   end
   begin
      id 18
      name RightForeArm
      direction -1.000000 0.000000 0.000000
      length 8.346755
      axis 0.0 0.0 90.0 xyz
      dof ry rz rx
   end
   begin
      id 19
      name RightHand
      direction 0.000000 0.000000 0.000000
      length 0.000000
      axis 0.0 0.0 90.0 xyz
      dof rx ry rz
   end
   begin
      id 20
      name RightHand_dum1
      direction 0.000000 0.000000 0.000000
      length 0.000000
      axis 0.0 0.0 90.0 xyz
   end
   begin
      id 21
      name RightHand_dum2
      direction -1.000000 0.000000 0.000000
      length 3.937000
      axis 0.0 0.0 90.0 xyz
   end
   begin
      id 22
      name RightHandThumb1
      direction 0.000000 0.000000 1.000000
      length 3.937000
      axis 0.0 0.0 90.0 xyz
      dof rx rz ry
   end
   begin
      id 23
      name LeftUpLeg
      direction 0.000000 -1.000000 0.000000
      length 15.713025
      axis 0.0 0.0 0.0 xyz
      dof rx ry rz
   end
   begin
      id 24
      name LeftLeg
      direction 0.000000 -1.000000 0.000000
      length 14.435119
      axis 0.0 0.0 0.0 xyz
      dof rx ry rz
   end
   begin
      id 25
      name LeftFoot
      direction 0.000000 -0.258819 0.965926
      length 4.938895
      axis 15.0 0.0 0.0 xyz
      dof rx ry rz
   end
   begin
      id 26
      name LeftToeBase
      direction 0.000000 0.000000 1.000000
      length 2.952750
      axis 0.0 0.0 0.0 xyz
      dof rx ry rz
   end
   begin
      id 27
      name RightUpLeg
      direction 0.000000 -1.000000 0.000000
      length 15.713025
      axis 0.0 0.0 0.0 xyz
      dof rx ry rz
   end
   begin
      id 28
      name RightLeg
      direction 0.000000 -1.000000 0.000000
      length 14.435119
      axis 0.0 0.0 0.0 xyz
      dof rx ry rz
   end
   begin
      id 29
      name RightFoot
      direction 0.000000 -0.258819 0.965926
      length 4.938895
      axis 15.0 0.0 0.0 xyz
      dof rx ry rz
   end
   begin
      id 30
      name RightToeBase
      direction 0.000000 0.000000 1.000000
      length 2.952750
      axis 0.0 0.0 0.0 xyz
      dof rx ry rz
   end
:hierarchy
   begin
      root Spine_dum LeftUpLeg_dum RightUpLeg_dum
      Spine_dum Spine
      LeftUpLeg_dum LeftUpLeg
      RightUpLeg_dum RightUpLeg
      Spine Spine_dum1 Spine_dum2 Spine_dum3
      Spine_dum1 Head
      Spine_dum2 LeftShoulder
      Spine_dum3 RightShoulder
      LeftShoulder LeftArm
      LeftArm LeftForeArm
      LeftForeArm LeftHand
      LeftHand LeftHand_dum1 LeftHand_dum2
      LeftHand_dum1 LeftHandThumb1
      RightShoulder RightArm
      RightArm RightForeArm
      RightForeArm RightHand
      RightHand RightHand_dum1 RightHand_dum2
      RightHand_dum1 RightHandThumb1
      LeftUpLeg LeftLeg
      LeftLeg LeftFoot
      LeftFoot LeftToeBase
      RightUpLeg RightLeg
      RightLeg RightFoot
      RightFoot RightToeBase
   end

# File created by Blade
# Date/Time:  Tue Sep 23 19:22:32 2014
# Frame Rate: 120.000 fps
#------------------------------------------------------
:FULLY-SPECIFIED
:DEGREES
317
root 1.097260 34.588469 0.741913 111.457660 15.308781 -36.550089
Spine -73.019851 -0.945061 32.811229
Head -14.765671 14.746325 44.658251
LeftShoulder -12.484800 35.534256 36.531688
LeftArm 94.874757 -63.574783 -114.461385
LeftForeArm 36.677638 0.000000 118.424466
LeftHand 24.669470 -0.000000 22.997280
LeftHandThumb1 -26.253704 0.000000 33.147579
RightShoulder -38.173700 -40.279862 -2.064370
RightArm 33.691050 53.030529 64.466818
RightForeArm 89.257822 -0.000000 -7.107954
RightHand 4.387954 -0.000000 24.628053
RightHandThumb1 -24.326973 -0.000000 -32.862282
LeftUpLeg -118.579469 33.055667 -10.787233
LeftLeg -7.201563 -0.000000 0.000000
LeftFoot 3.559952 -7.624580 3.442876
LeftToeBase 2.614810 -0.000000 -0.000000
RightUpLeg 6.821669 2.870508 -31.712000
RightLeg 62.434393 -0.000000 -0.000000
RightFoot 39.637577 15.085726 -0.880937
RightToeBase 31.698671 -0.000000 -0.000000
318
root 1.066328 34.583990 0.736802 111.807881 15.376905 -36.571018
Spine -73.263873 -0.998206 32.835665
Head -14.695070 14.707361 44.980537
LeftShoulder -12.469333 35.441945 36.747878
LeftArm 95.557251 -63.906929 -114.703835
LeftForeArm 36.492083 -0.000000 118.234187
LeftHand 24.765527 -0.000000 23.005896
LeftHandThumb1 -26.253704 0.000000 33.147579
RightShoulder -38.157717 -40.176528 -2.201827
RightArm 33.656136 53.090276 64.505219
RightForeArm 89.332315 -0.000000 -6.956431
RightHand 4.487589 -0.000000 24.228190
RightHandThumb1 -24.326973 -0.000000 -32.862282
LeftUpLeg -119.073534 32.995305 -11.139171
LeftLeg -7.317844 -0.000000 0.000000
LeftFoot 3.611371 -7.719730 3.439981
LeftToeBase 2.573539 -0.000000 -0.000000
RightUpLeg 6.878862 2.680782 -31.659677
RightLeg 62.290461 -0.000000 -0.000000
RightFoot 39.711937 15.195764 -0.859467
RightToeBase 31.762550 -0.000000 -0.000000
319
root 1.030757 34.580537 0.731102 112.156021 15.487173 -36.576025
Spine -73.492941 -1.066547 32.899437
Head -14.675056 14.649527 45.304491
LeftShoulder -12.479303 35.314609 36.970639
LeftArm 96.365975 -64.172778 -115.096157
LeftForeArm 36.404871 0.000000 118.040761
LeftHand 24.900303 0.000000 22.890062
LeftHandThumb1 -26.253704 0.000000 33.147579
RightShoulder -38.165718 -40.129590 -2.222370
RightArm 33.693201 53.281832 64.599437
RightForeArm 89.253697 -0.000000 -6.819256
RightHand 4.588163 -0.000000 24.077992
RightHandThumb1 -24.326973 -0.000000 -32.862282
LeftUpLeg -119.565227 32.940638 -11.447138
LeftLeg -7.449064 -0.000000 0.000000
LeftFoot 3.757741 -7.803580 3.556571
LeftToeBase 2.280913 -0.000000 -0.000000
RightUpLeg 6.949272 2.526145 -31.516810
RightLeg 62.142289 -0.000000 -0.000000
RightFoot 39.787976 15.268447 -0.729953
RightToeBase 31.893711 -0.000000 -0.000000
320
root 0.996369 34.580525 0.723001 112.545945 15.558303 -36.586234
Spine -73.748707 -1.140498 32.926589
Head -14.733832 14.608705 45.612899
LeftShoulder -12.527391 35.209421 37.166688
LeftArm 97.301614 -64.403141 -115.596031
LeftForeArm 36.567912 -0.000000 117.864810
LeftHand 24.777948 0.000000 22.899723
LeftHandThumb1 -26.253704 0.000000 33.147579
RightShoulder -38.168133 -40.008361 -2.287486
RightArm 33.635543 53.410310 64.627884
RightForeArm 89.112807 -0.000000 -6.682798
RightHand 4.662668 -0.000000 23.963883
RightHandThumb1 -24.326973 -0.000000 -32.862282
LeftUpLeg -120.167212 32.811574 -11.898412
LeftLeg -7.544950 -0.000000 0.000000
LeftFoot 3.867899 -7.985343 3.637522
LeftToeBase 2.208542 -0.000000 -0.000000
RightUpLeg 6.977992 2.298013 -31.431473
RightLeg 62.018472 -0.000000 -0.000000
RightFoot 39.789852 15.184884 -0.506751
RightToeBase 32.119989 -0.000000 -0.000000
321
root 0.956688 34.579531 0.715916 112.915349 15.670561 -36.555789
Spine -73.990171 -1.243799 32.983742
Head -14.821516 14.568617 45.903886
LeftShoulder -12.538761 35.035595 37.403958
LeftArm 98.224073 -64.643281 -116.124178
LeftForeArm 36.421209 0.000000 117.648248
LeftHand 24.958725 -0.000000 22.814509
LeftHandThumb1 -26.253704 0.000000 33.147579
RightShoulder -38.217784 -39.914748 -2.281166
RightArm 33.637866 53.640114 64.729566
RightForeArm 88.812995 -0.000000 -6.504375
RightHand 4.785772 -0.000000 23.853641
RightHandThumb1 -24.326973 -0.000000 -32.862282
LeftUpLeg -120.662206 32.743398 -12.160398
LeftLeg -7.652046 -0.000000 0.000000
LeftFoot 4.031051 -8.085183 3.672024
LeftToeBase 1.991429 -0.000000 -0.000000
RightUpLeg 7.062419 2.050895 -31.285818
RightLeg 61.883905 -0.000000 -0.000000
RightFoot 39.703692 15.245526 -0.478171
RightToeBase 32.334192 -0.000000 -0.000000
322
root 0.920019 34.574220 0.707608 113.323307 15.713234 -36.505474
Spine -74.286125 -1.365706 33.017405
Head -14.914700 14.560400 46.157405
LeftShoulder -12.527593 34.827646 37.621100
LeftArm 99.125874 -65.017342 -116.611620
LeftForeArm 35.987380 0.000000 117.446224
LeftHand 25.097173 0.000000 22.611844
LeftHandThumb1 -26.253704 0.000000 33.147579
RightShoulder -38.245451 -39.905445 -2.225058
RightArm 33.639831 53.875663 64.771712
RightForeArm 88.646088 -0.000000 -6.383906
RightHand 4.695908 -0.000000 23.875362
RightHandThumb1 -24.326973 -0.000000 -32.862282
LeftUpLeg -121.151609 32.622274 -12.466918
LeftLeg -7.778812 -0.000000 0.000000
LeftFoot 4.141689 -8.178229 3.740777
LeftToeBase 1.905264 -0.000000 -0.000000
RightUpLeg 7.149717 1.755350 -31.189992
RightLeg 61.767901 -0.000000 -0.000000
RightFoot 39.590947 15.287050 -0.646697
RightToeBase 32.086802 -0.000000 -0.000000
323
root 0.880744 34.561947 0.697816 113.546951 15.685417 -36.396651
Spine -74.444108 -1.662442 33.021244
Head -15.047249 14.590580 46.417436
LeftShoulder -12.569937 34.589247 37.793229
LeftArm 99.941399 -65.361933 -117.012977
LeftForeArm 35.569927 0.000000 117.227289
LeftHand 25.215949 0.000000 22.541935
LeftHandThumb1 -26.253704 0.000000 33.147579
RightShoulder -38.287188 -39.765958 -2.237697
RightArm 33.655680 54.100060 64.842232
RightForeArm 88.394211 -0.000000 -6.231250
RightHand 4.812583 -0.000000 23.704737
RightHandThumb1 -24.326973 -0.000000 -32.862282
LeftUpLeg -121.320585 32.507411 -12.593313
LeftLeg -7.929658 -0.000000 0.000000
LeftFoot 4.242755 -8.162221 3.917899
LeftToeBase 1.643104 -0.000000 -0.000000
RightUpLeg 7.496358 1.460616 -31.159063
RightLeg 61.597877 -0.000000 -0.000000
RightFoot 39.560294 15.101595 -0.524180
RightToeBase 32.340861 -0.000000 -0.000000
324
root 0.839369 34.558201 0.685213 113.869015 15.833023 -36.520618
Spine -74.585725 -1.653659 33.092074
Head -15.191310 14.624000 46.623976
LeftShoulder -12.570603 34.323382 38.020675
LeftArm 101.007061 -65.626701 -117.711308
LeftForeArm 34.858862 -0.000000 116.997023
LeftHand 25.583959 -0.000000 22.093784
LeftHandThumb1 -26.253704 0.000000 33.147579
RightShoulder -38.403573 -39.835885 -2.118092
RightArm 33.875603 54.283425 65.061710
RightForeArm 88.222136 -0.000000 -6.167213
RightHand 4.819300 -0.000000 23.787191
RightHandThumb1 -24.326973 -0.000000 -32.862282
LeftUpLeg -121.712455 32.729637 -12.656749
LeftLeg -8.063059 -0.000000 0.000000
LeftFoot 4.345996 -7.986419 4.049580
LeftToeBase 1.478206 -0.000000 -0.000000
RightUpLeg 7.469243 1.339964 -31.022871
RightLeg 61.553021 -0.000000 -0.000000
RightFoot 39.641611 15.018579 -0.580779
RightToeBase 32.292189 -0.000000 -0.000000
325
root 0.801819 34.551710 0.676262 114.213940 15.934959 -36.630297
Spine -74.766881 -1.649686 33.124986
Head -15.358522 14.706768 46.818520
LeftShoulder -12.531680 34.024195 38.303900
LeftArm 101.866469 -65.984426 -118.270127
LeftForeArm 34.045292 -0.000000 116.694592
LeftHand 26.121624 -0.000000 21.886583
LeftHandThumb1 -26.253704 0.000000 33.147579
RightShoulder -38.420709 -39.723334 -2.181922
RightArm 33.757047 54.351171 65.003964
RightForeArm 88.264494 -0.000000 -6.006467
RightHand 4.962634 0.000000 23.435873
RightHandThumb1 -24.326973 -0.000000 -32.862282
LeftUpLeg -122.161835 32.832451 -12.865299
LeftLeg -8.195667 -0.000000 0.000000
LeftFoot 4.412443 -7.870640 4.266024
LeftToeBase 1.241523 -0.000000 -0.000000
RightUpLeg 7.442384 1.244254 -30.905518
RightLeg 61.502028 -0.000000 -0.000000
RightFoot 39.775032 14.909346 -0.442754
RightToeBase 32.127581 -0.000000 -0.000000
326
root 0.764302 34.542472 0.663487 114.524416 15.986729 -36.727052
Spine -74.921005 -1.694954 33.153216
Head -15.532359 14.809923 46.977422
LeftShoulder -12.484504 33.676899 38.583894
LeftArm 102.799751 -66.337095 -118.971594
LeftForeArm 32.390678 -0.000000 116.473534
LeftHand 26.896024 -0.000000 20.978992
LeftHandThumb1 -26.253704 0.000000 33.147579
RightShoulder -38.405262 -39.614389 -2.289874
RightArm 33.688259 54.422523 64.992226
RightForeArm 88.209178 -0.000000 -5.938938
RightHand 5.038305 -0.000000 23.373198
RightHandThumb1 -24.326973 -0.000000 -32.862282
LeftUpLeg -122.533206 32.907119 -13.065861
LeftLeg -8.361703 -0.000000 0.000000
LeftFoot 4.493043 -7.707289 4.582449
LeftToeBase 0.958508 -0.000000 -0.000000
RightUpLeg 7.499610 1.110885 -30.842069
RightLeg 61.419370 -0.000000 -0.000000
RightFoot 39.822600 15.013892 -0.585125
RightToeBase 32.065597 -0.000000 -0.000000
327
root 0.726711 34.531950 0.652521 114.824224 16.027889 -36.853866
Spine -75.070586 -1.729465 33.185857
Head -15.674581 14.877219 47.145880
LeftShoulder -12.586673 33.816667 38.617075
LeftArm 105.039397 -66.338497 -120.744708
LeftForeArm 30.966255 0.000000 116.185066
LeftHand 27.555899 -0.000000 20.326292
LeftHandThumb1 -26.253704 0.000000 33.147579
RightShoulder -38.435535 -39.686430 -2.245786
RightArm 33.782931 54.482010 65.072534
RightForeArm 88.077387 0.000000 -5.853137
RightHand 5.097931 -0.000000 23.282198
RightHandThumb1 -24.326973 -0.000000 -32.862282
LeftUpLeg -122.871981 33.017150 -13.250913
LeftLeg -8.538510 -0.000000 0.000000
LeftFoot 4.534632 -7.463426 4.924513
LeftToeBase 0.757451 -0.000000 -0.000000
RightUpLeg 7.544495 1.041928 -30.771666
RightLeg 61.301258 -0.000000 -0.000000
RightFoot 39.897677 14.956904 -0.494312
RightToeBase 32.171930 -0.000000 -0.000000
